HIERARCHY
ROOT Hips
{
	OFFSET -3.958830 18.904000 13.208200
	CHANNELS 6 Xposition Yposition Zposition Zrotation Yrotation Xrotation 
	JOINT LHipJoint
	{
		OFFSET 0.000000 0.000000 0.000000
		CHANNELS 3 Zrotation Yrotation Xrotation
		JOINT LeftUpLeg
		{
			OFFSET 1.800000 -1.400000 0.085000
			CHANNELS 3 Zrotation Yrotation Xrotation
			JOINT LeftLeg
			{
				OFFSET 2.215000 -6.000000 0.000000
				CHANNELS 3 Zrotation Yrotation Xrotation
				JOINT LeftFoot
				{
					OFFSET 2.500000 -6.900000 0.000000
					CHANNELS 3 Zrotation Yrotation Xrotation
					JOINT LeftToeBase
					{
						OFFSET 0.200000 -0.500000 1.950000
						CHANNELS 3 Zrotation Yrotation Xrotation
						End Site
						{
							OFFSET 0.000000 0.000000 0.000000
						}
					}
				}
			}
		}
	}
	JOINT RHipJoint
	{
		OFFSET 0.000000 0.000000 0.000000
		CHANNELS 3 Zrotation Yrotation Xrotation
		JOINT RightUpLeg
		{
			OFFSET -1.800000 -1.400000 0.085000
			CHANNELS 3 Zrotation Yrotation Xrotation
			JOINT RightLeg
			{
				OFFSET -2.215000 -6.000000 0.000000
				CHANNELS 3 Zrotation Yrotation Xrotation
				JOINT RightFoot
				{
					OFFSET -2.500000 -6.900000 0.000000
					CHANNELS 3 Zrotation Yrotation Xrotation
					JOINT RightToeBase
					{
						OFFSET -0.200000 -0.500000 1.950000
						CHANNELS 3 Zrotation Yrotation Xrotation
						End Site
						{
							OFFSET 0.000000 0.000000 0.000000
						}
					}
				}
			}
		}
	}
	JOINT LowerBack
	{
		OFFSET 0.000000 0.000000 0.000000
		CHANNELS 3 Zrotation Yrotation Xrotation
		JOINT Spine
		{
			OFFSET -0.087000 1.940000 -0.288900
			CHANNELS 3 Zrotation Yrotation Xrotation
			JOINT Spine1
			{
				OFFSET 0.000000 1.950000 0.060000
				CHANNELS 3 Zrotation Yrotation Xrotation
				JOINT Neck
				{
					OFFSET 0.000000 0.000000 0.000000
					CHANNELS 3 Zrotation Yrotation Xrotation
					JOINT Neck1
					{
						OFFSET 0.000000 1.600000 0.340000
						CHANNELS 3 Zrotation Yrotation Xrotation
						JOINT Head
						{
							OFFSET 0.000000 1.667000 -0.240000
							CHANNELS 3 Zrotation Yrotation Xrotation
							End Site
							{
								OFFSET 0.000000 0.000000 0.000000
							}
						}
					}
				}
				JOINT LeftShoulder
				{
					OFFSET 0.000000 0.000000 0.000000
					CHANNELS 3 Zrotation Yrotation Xrotation
					JOINT LeftArm
					{
						OFFSET 2.700000 1.550000 -0.730000
						CHANNELS 3 Zrotation Yrotation Xrotation
						JOINT LeftForeArm
						{
							OFFSET 5.450000 0.000000 0.000000
							CHANNELS 3 Zrotation Yrotation Xrotation
							JOINT LeftHand
							{
								OFFSET 3.450000 0.000000 0.000000
								CHANNELS 3 Zrotation Yrotation Xrotation
								JOINT LeftHandIndex1
								{
									OFFSET 0.750000 0.000000 0.000000
									CHANNELS 3 Zrotation Yrotation Xrotation
									End Site
									{
										OFFSET 0.000000 0.000000 0.000000
									}
								}
							}
						}
					}
				}
				JOINT RightShoulder
				{
					OFFSET 0.000000 0.000000 0.000000
					CHANNELS 3 Zrotation Yrotation Xrotation
					JOINT RightArm
					{
						OFFSET -2.700000 1.550000 -0.730000
						CHANNELS 3 Zrotation Yrotation Xrotation
						JOINT RightForeArm
						{
							OFFSET -5.450000 0.000000 0.000000
							CHANNELS 3 Zrotation Yrotation Xrotation
							JOINT RightHand
							{
								OFFSET -3.450000 0.000000 0.000000
								CHANNELS 3 Zrotation Yrotation Xrotation
								JOINT RightHandIndex1
								{
									OFFSET -0.750000 0.000000 0.000000
									CHANNELS 3 Zrotation Yrotation Xrotation
									End Site
									{
										OFFSET 0.000000 0.000000 0.000000
									}
								}
							}
						}
					}
				}
			}
		}
	}
}
MOTION
Frames: 12
Frame Time: 0.016667
1.582270 17.810930 3.907230 2.105699 -4.562830 -2.210316 -14.211797 11.087893 1.785499 -8.825998 -1.069841 -13.044344 0.749594 3.194307 11.224719 -0.239263 2.303007 3.891924 0.154700 0.245230 -0.258920 19.665321 -11.292101 3.375854 -6.053287 2.305371 -1.361511 11.399015 -2.330092 -5.508459 -0.552687 -4.741753 2.716562 0.189360 0.355050 -0.056020 -6.637000 7.516638 -9.174630 21.749788 -0.414201 33.339995 -31.600131 16.327433 26.217973 14.577540 -17.794525 -25.296834 -13.687966 -15.524092 12.222978 20.300900 -17.273580 -23.744700 17.266006 -6.099571 6.367689 -17.516283 1.702271 -7.797257 149.298782 -25.457983 -120.382859 -3.384564 3.833761 0.053210 -0.098510 -0.152760 0.175660 -37.001781 38.252577 -10.390818 -14.320139 4.004261 3.798471 -12.050203 -8.229915 -0.748053 4.141439 -1.234446 -0.074310 0.279370 0.050280 0.288490 
1.570650 17.820620 3.913390 1.985408 -3.889373 -1.341422 -14.172250 11.057990 1.752094 -8.743550 -1.120823 -13.644590 0.228064 3.177416 10.606925 -0.192664 2.233796 3.936760 0.045930 0.133700 -0.313710 19.724386 -11.224330 3.406109 -5.468997 2.552576 -1.520815 11.003304 -2.092027 -6.352632 -0.529902 -4.691661 2.771486 0.099130 0.378500 -0.074750 -6.724425 7.840716 -9.214608 22.678658 -0.459212 33.279143 -33.162176 16.680221 25.369280 15.299467 -18.072372 -25.829639 -14.272392 -15.971834 12.099663 20.255050 -18.041100 -22.884690 16.620226 -6.619221 7.582725 -21.022173 2.420183 -7.710317 150.568386 -26.506251 -126.722433 -3.420601 3.733689 0.040810 -0.081460 -0.170090 0.147330 -37.268541 38.138118 -12.010866 -14.482797 2.765109 6.592822 -8.824245 -9.148045 -0.570648 3.973968 -0.809552 -0.087140 0.279120 0.082760 0.295380 
1.560500 17.824960 3.922320 1.866395 -3.200346 -0.306335 -14.153842 10.997691 1.716792 -8.617872 -1.203465 -14.328463 -0.288313 3.135933 10.001485 -0.197585 2.191460 3.961910 0.014720 0.108250 -0.350370 19.775637 -11.155790 3.374755 -4.892905 2.717416 -1.992294 10.634441 -1.900809 -6.783126 -0.502353 -4.631383 2.805416 0.086110 0.404990 -0.081860 -6.817308 8.036234 -9.264713 23.390063 -0.660381 32.498073 -34.472036 16.711007 25.455179 15.901045 -18.301411 -26.079664 -14.346405 -16.617927 11.189515 20.381070 -18.871300 -22.751970 15.811318 -6.118262 8.169329 -24.869635 2.052899 -7.505971 151.292260 -27.657403 -131.701258 -3.471655 3.664644 0.021490 -0.064920 -0.191560 0.147280 -37.438021 37.276362 -11.878705 -14.322126 2.511565 7.702953 -7.901535 -9.929678 -0.581114 3.971895 -0.670891 -0.093450 0.289220 0.098860 0.309600 
1.556290 17.817720 3.930090 1.943610 -2.290615 0.856833 -14.165718 10.968853 1.748654 -8.944371 -1.324801 -15.321706 -0.384332 3.050922 9.712327 -0.199226 2.133116 3.985170 -0.008660 0.078400 -0.358350 19.781688 -11.085738 3.333548 -4.454833 2.876206 -2.769187 10.303657 -1.736333 -6.926375 -0.463113 -4.519174 2.840019 0.065690 0.406810 -0.078650 -6.809515 7.900355 -9.253683 23.514788 -0.747323 31.506542 -35.456744 16.739791 25.415666 16.545551 -18.368175 -26.375790 -14.272325 -17.693820 10.361773 19.841100 -19.884910 -22.396520 14.865268 -5.186551 8.691826 -28.796190 0.904422 -6.468565 152.645069 -28.604461 -137.434208 -3.522973 3.602199 0.008190 -0.058730 -0.198580 0.140490 -37.763717 35.964858 -11.253470 -13.839522 2.559243 8.223959 -7.236326 -9.911647 -0.556545 3.967112 -0.631170 -0.091090 0.280270 0.105170 0.313660 
1.547180 17.812830 3.930880 2.209826 -1.672088 1.465127 -14.179194 10.989241 1.826266 -8.994650 -1.398164 -15.680102 -0.936837 3.072540 9.284216 -0.202887 2.121425 3.979225 -0.017710 0.051230 -0.335440 19.751001 -11.095774 3.309974 -4.440231 2.914313 -3.522264 10.152455 -1.744090 -6.557701 -0.431530 -4.411359 2.867036 0.041690 0.382140 -0.060550 -6.734032 7.672354 -9.178317 22.835312 -0.412723 31.348205 -35.716721 17.088736 24.892760 16.819689 -18.028219 -26.195487 -13.659029 -18.465276 10.057813 19.188710 -20.278450 -22.547910 13.171911 -5.412934 9.349141 -31.174490 0.522852 -5.294744 154.996456 -29.437352 -145.418579 -3.556424 3.561126 0.025210 -0.061890 -0.183700 0.120660 -36.971120 35.430481 -11.132790 -13.392896 2.437351 6.662282 -8.555397 -9.566582 -0.507106 4.032202 -0.773102 -0.084760 0.255610 0.108180 0.296040 
1.534940 17.814290 3.931920 2.556588 -1.104202 1.950171 -14.192426 11.044548 1.903816 -9.122477 -1.449037 -15.930618 -1.094114 3.073914 9.061145 -0.203375 2.095270 3.974177 -0.012570 0.045280 -0.303780 19.716492 -11.099253 3.289744 -4.524051 2.906189 -4.238373 9.932311 -1.746836 -6.210850 -0.406302 -4.295086 2.893521 0.029110 0.342790 -0.052420 -6.659872 7.416269 -9.092102 22.012348 -0.139452 31.151304 -35.998900 17.381968 24.712849 17.178218 -17.724911 -26.213927 -13.165955 -19.183280 9.873632 18.637870 -20.654850 -22.833940 11.544996 -5.404015 9.759094 -33.592486 -0.228382 -4.048614 157.791623 -31.212206 -155.678480 -3.569148 3.545601 0.043490 -0.078470 -0.160780 0.103840 -36.342109 34.613522 -10.180939 -12.897026 2.238801 5.431377 -9.402225 -9.301190 -0.476641 4.113777 -0.865350 -0.074460 0.232650 0.099760 0.279200 
1.513160 17.813660 3.937690 3.277523 -0.379931 2.297267 -14.196342 11.043336 1.995306 -9.654326 -1.595541 -15.857250 -0.851606 2.989624 8.733463 -0.225441 2.068879 3.975054 0.006760 0.069520 -0.297500 19.699459 -11.122530 3.253651 -4.917791 2.783104 -4.891101 9.669716 -1.793258 -5.865630 -0.378676 -4.226594 2.906996 0.051210 0.335910 -0.051730 -6.626368 7.271407 -9.043133 20.696989 0.237607 30.837241 -35.940048 17.613132 24.977401 17.291352 -17.454753 -25.971133 -12.540364 -19.471898 9.527667 18.514760 -20.822880 -23.090920 10.198217 -5.498740 9.778129 -35.559799 -1.055421 -3.591369 159.492037 -32.691398 -162.609220 -3.577563 3.558031 0.044590 -0.080440 -0.159460 0.104890 -35.485011 34.173460 -8.973340 -12.454164 2.301717 4.423487 -10.516471 -9.827781 -0.526598 4.236139 -0.979496 -0.073250 0.234750 0.098770 0.277050 
1.502080 17.811980 3.943430 3.405495 0.800857 2.639052 -14.174605 10.986987 1.988611 -9.692376 -1.639943 -15.945707 -0.707840 2.938532 8.591762 -0.231722 2.045201 3.982473 0.010900 0.071210 -0.303960 19.728913 -11.167447 3.225772 -4.850839 2.710417 -5.351386 9.549033 -1.840928 -5.598529 -0.364877 -4.192186 2.919667 0.052260 0.339860 -0.047350 -6.665217 7.352141 -9.050419 20.828129 0.226104 30.344291 -36.364619 17.471104 25.141618 17.563003 -17.267650 -25.790794 -12.427303 -19.394965 9.596152 18.675020 -21.087170 -23.012160 9.160553 -5.978150 9.981884 -37.501988 -1.382442 -3.661794 161.095216 -34.530636 -169.244762 -3.573895 3.587947 0.044510 -0.079190 -0.162170 0.109630 -35.048856 34.134159 -9.128059 -12.671935 1.925698 5.060923 -9.404604 -9.814610 -0.522203 4.144344 -0.853789 -0.070010 0.232640 0.100420 0.280890 
1.491730 17.817070 3.948580 3.501787 1.806992 2.686504 -14.158559 11.021063 1.978913 -9.679255 -1.632629 -15.765230 -0.672909 2.937141 8.405906 -0.211271 2.044990 3.982937 0.000530 0.068170 -0.325140 19.751813 -11.132375 3.196009 -4.840430 2.659597 -5.474247 9.595050 -1.879216 -5.370406 -0.354844 -4.177089 2.926012 0.045770 0.347240 -0.048490 -6.694336 7.373850 -9.049443 20.658455 -0.495886 30.271570 -37.275433 16.871366 25.505971 18.182441 -17.335944 -26.268968 -12.479140 -19.279051 9.281309 19.132540 -21.357420 -22.819030 8.388415 -5.057436 9.488836 -39.664673 -1.614156 -4.197088 162.448223 -36.765422 -175.293885 -3.558697 3.630478 0.030230 -0.078530 -0.166930 0.111680 -35.322632 33.456728 -7.610036 -12.911164 1.392944 5.226073 -8.381059 -9.315646 -0.528076 4.127785 -0.753588 -0.061350 0.229210 0.105140 0.295300 
1.479230 17.815130 3.949020 3.651642 3.116913 2.447891 -14.153620 11.016580 1.986677 -9.620698 -1.608602 -15.350825 -0.662077 2.946038 8.248643 -0.203584 2.047834 3.981611 0.018290 0.095990 -0.329060 19.752847 -11.163546 3.192017 -4.881849 2.487676 -5.458341 9.584711 -1.961855 -5.181930 -0.358996 -4.186159 2.924980 0.061910 0.346180 -0.052320 -6.675139 7.316711 -9.025071 20.154877 -0.948690 30.414745 -37.296301 16.484630 25.755574 18.417391 -17.164691 -26.104039 -12.235675 -19.011744 9.193860 19.350450 -21.290370 -22.944250 7.307349 -4.962558 9.244123 -41.339615 -1.557995 -4.941035 164.025745 -39.128682 178.660249 -3.521109 3.683777 0.026310 -0.083520 -0.164200 0.125690 -34.786017 33.254671 -6.731020 -13.005578 1.046343 4.473472 -8.737365 -9.495608 -0.572491 4.180708 -0.768804 -0.055520 0.233040 0.094890 0.303380 
1.470420 17.816370 3.941380 4.048949 4.542496 1.920905 -14.161849 11.006162 2.030694 -9.777614 -1.635398 -14.618235 -0.647971 2.976862 8.165980 -0.168973 2.049429 3.976394 0.036320 0.117370 -0.311780 19.729646 -11.208148 3.200633 -5.414625 2.298792 -5.303078 9.596865 -2.072301 -5.034686 -0.378188 -4.205719 2.914063 0.059110 0.320660 -0.051550 -6.607374 7.213604 -9.012069 19.346789 -1.337803 31.100580 -36.891600 16.147944 25.632376 18.504578 -17.058805 -25.668662 -12.240176 -18.577751 9.571495 19.852360 -20.990170 -23.522980 6.246303 -6.057412 9.650011 -43.219990 -0.959285 -6.282587 165.804592 -41.526903 172.255687 -3.463860 3.725344 0.038090 -0.108020 -0.138850 0.132270 -34.027135 33.922504 -6.897667 -12.880324 0.975896 3.300493 -10.210673 -10.930501 -0.611854 4.411422 -0.838479 -0.039090 0.221520 0.072850 0.305680 
1.462330 17.808070 3.932710 4.318811 5.387585 1.550651 -14.173392 10.992197 2.070121 -9.714732 -1.662461 -14.068135 -0.928452 3.028758 7.975627 -0.145949 2.084131 3.972813 0.051090 0.135460 -0.311760 19.701617 -11.288422 3.172135 -5.827544 2.096822 -5.580689 9.636776 -2.251916 -4.318932 -0.363401 -4.201234 2.921983 0.066090 0.337200 -0.043670 -6.545158 7.096994 -8.982875 18.706375 -1.294435 31.333388 -36.088145 16.076503 25.788468 18.476133 -17.082871 -25.150662 -12.305255 -18.157099 9.544767 19.958310 -20.910500 -23.416850 5.300573 -7.324824 10.241537 -45.647385 -0.956625 -7.167691 167.050420 -43.089385 167.955142 -3.459064 3.748656 0.024060 -0.100180 -0.141310 0.148100 -33.057481 34.872102 -7.236445 -12.801533 0.855060 1.630987 -12.606654 -12.076069 -0.717207 4.681561 -0.987327 -0.028420 0.227310 0.063220 0.320120 
